<?xml version="1.0" encoding="UTF-8" standalone="no"?>
<!-- Created with Inkscape (http://www.inkscape.org/) -->

<svg
   version="1.1"
   id="svg767"
   width="546.1333"
   height="546.1333"
   viewBox="0 0 546.1333 546.1333"
   sodipodi:docname="colmeia.svg"
   inkscape:version="1.2.1 (9c6d41e410, 2022-07-14)"
   xmlns:inkscape="http://www.inkscape.org/namespaces/inkscape"
   xmlns:sodipodi="http://sodipodi.sourceforge.net/DTD/sodipodi-0.dtd"
   xmlns="http://www.w3.org/2000/svg"
   xmlns:svg="http://www.w3.org/2000/svg">
  <defs
     id="defs771" />
  <sodipodi:namedview
     id="namedview769"
     pagecolor="#ffffff"
     bordercolor="#000000"
     borderopacity="0.25"
     inkscape:showpageshadow="2"
     inkscape:pageopacity="0.0"
     inkscape:pagecheckerboard="0"
     inkscape:deskcolor="#d1d1d1"
     showgrid="false"
     inkscape:zoom="0.96070544"
     inkscape:cx="322.1591"
     inkscape:cy="304.98422"
     inkscape:window-width="1920"
     inkscape:window-height="974"
     inkscape:window-x="-11"
     inkscape:window-y="-11"
     inkscape:window-maximized="1"
     inkscape:current-layer="g773" />
  <g
     inkscape:groupmode="layer"
     inkscape:label="Image"
     id="g773">
    <path
       sodipodi:type="star"
       style="fill:#ffff00;fill-opacity:1"
       id="path3498"
       inkscape:flatsided="true"
       sodipodi:sides="6"
       sodipodi:cx="35.329376"
       sodipodi:cy="0"
       sodipodi:r1="260.81601"
       sodipodi:r2="225.87329"
       sodipodi:arg1="0.49394137"
       sodipodi:arg2="1.0175401"
       inkscape:rounded="0"
       inkscape:randomized="0"
       d="M 264.97033,123.65282 43.063369,260.70132 -186.57759,137.04849 l -7.73399,-260.70131 221.906964,-137.0485 229.640956,123.65283 z"
       transform="matrix(1.0911536,0.03038369,-0.0322467,1.0281137,233.69154,271.59903)" />
    <path
       style="display:none;fill:#ffff00;fill-opacity:0.8;stroke-width:1.47206"
       d="M 211.95582,495.60493 C 132.88883,452.44902 42.905939,402.64555 41.760179,401.40555 41.248961,400.85229 40.492021,343.56529 40.078088,274.10111 l -0.752604,-126.2985 3.154148,-1.98756 C 46.835311,143.07036 216.37248,52.771539 248.43825,36.117453 l 26.07533,-13.542815 15.83719,8.470892 c 15.07282,8.062056 111.15186,60.719238 153.47454,84.11342 10.93003,6.04165 29.04201,15.99385 40.24886,22.11599 11.20683,6.12214 20.59519,11.85472 20.863,12.73907 0.26781,0.88435 0.79263,58.24531 1.16628,127.46881 l 0.67937,125.86091 -52.35397,27.96909 c -148.34984,79.25303 -180.75193,96.40656 -182.11868,96.41287 -0.82086,0.004 -27.98032,-14.45055 -60.35435,-32.12076 z"
       id="path1355" />
    <path
       style="display:inline;fill:#fd9710;stroke-width:1.52987"
       d="M 189.08303,412.95339 158.99371,397.3904 v -30.58866 -30.58866 l 16.66416,-8.65161 c 9.16529,-4.75837 19.1692,-9.83422 22.2309,-11.27965 l 5.56673,-2.62806 30.46652,15.40177 30.46651,15.40176 -0.43938,30.82234 -0.43937,30.82233 -11.90849,6.17157 c -6.54969,3.39435 -16.5256,8.4376 -22.16872,11.2072 l -10.26022,5.03563 z m 68.39667,-34.92367 c -0.48744,-5.91252 -0.68176,-6.10418 -6.62616,-6.53596 l -6.12399,-0.44481 v 6.53595 6.53596 h 6.62616 6.62615 z m 0.31435,-20.30595 v -9.19859 l -17.3095,-8.71651 c -9.52024,-4.79409 -17.78763,-8.71244 -18.37198,-8.70746 -1.12906,0.01 -7.19997,8.77495 -6.42089,9.27063 0.25259,0.16073 6.86888,3.45933 14.70285,7.33023 l 14.2436,7.03802 0.0457,6.09114 0.0457,6.09113 h 6.53225 6.53226 v -9.19859 z m 67.77215,55.22867 -29.39515,-15.35458 -0.43979,-31.00315 -0.4398,-31.00314 15.13737,-7.77581 c 8.32555,-4.27669 18.07688,-9.23053 21.66963,-11.00852 l 6.53225,-3.23272 30.61995,15.53883 30.61994,15.53884 v 30.43652 30.4365 l -15.10584,7.73062 c -8.30821,4.25185 -18.41279,9.37776 -22.45463,11.3909 l -7.34878,3.66028 z m 66.95561,-35.28102 c 0,-5.59006 -0.15253,-5.74391 -6.12399,-6.17766 l -6.12399,-0.44481 v 6.62247 6.62247 l 6.12399,-0.44481 c 5.97148,-0.43375 6.12399,-0.5876 6.12399,-6.17766 z m 0.81653,-19.91371 v -9.16467 l -16.7389,-8.39213 c -9.20639,-4.61569 -17.48666,-8.57181 -18.40059,-8.79137 -2.11967,-0.50927 -8.3889,8.66723 -6.374,9.32985 0.82689,0.27192 7.38247,3.55711 14.56794,7.30039 12.7547,6.64459 13.07642,6.94917 13.56668,12.84427 0.49898,6.00001 0.54298,6.03831 6.94052,6.03831 h 6.43835 z m -271.9051,-49.37888 -29.395154,-15.34197 -0.38642,-30.05974 -0.38642,-30.05974 22.133464,-11.08793 22.13347,-11.08793 30.10273,15.19876 30.10273,15.19876 v 31.18585 31.18584 l -20.17856,10.20769 c -11.09821,5.61423 -21.20279,10.1615 -22.45463,10.10504 -1.25183,-0.0564 -15.50388,-7.00654 -31.67121,-15.44463 z m 67.77214,-33.1818 v -5.73284 h -6.53225 -6.53226 v 5.73284 5.73283 h 6.53226 6.53225 z m 0,-19.90854 v -9.87607 l -17.10244,-8.75564 c -9.40634,-4.81559 -17.47113,-8.75563 -17.92176,-8.75563 -0.823,0 -5.80239,7.85258 -5.80239,9.15046 0,0.38145 6.24162,3.79944 13.87027,7.59552 13.85044,6.8921 13.87028,6.91032 13.88104,12.75422 0.0131,7.08783 0.67699,7.76321 7.63174,7.76321 h 5.44354 z m 68.18041,52.66602 -30.61994,-15.85832 0.0304,-29.58941 0.0305,-29.5894 22.01505,-11.14732 22.01505,-11.14732 30.21253,15.37763 30.21253,15.37764 v 30.96699 30.96699 l -20.31781,10.30706 c -11.1748,5.66888 -20.91194,10.28157 -21.6381,10.25042 -0.72615,-0.0311 -15.09925,-7.19288 -31.94022,-15.91496 z m 67.36388,-32.75748 v -5.73284 h -6.53226 -6.53225 v 5.73284 5.73283 h 6.53225 6.53226 z m 0,-19.87694 v -9.84448 l -17.30115,-8.78723 c -9.51565,-4.83297 -17.58044,-8.78723 -17.92177,-8.78723 -0.6807,0 -5.60367,8.03594 -5.60367,9.14708 0,0.3796 6.22591,3.79757 13.83533,7.59552 13.78934,6.88238 13.83549,6.92479 13.88104,12.7576 0.0553,7.09237 0.71789,7.76321 7.66668,7.76321 h 5.44354 z m 67.77214,53.01187 -29.39514,-15.34156 -0.43967,-30.07333 -0.43969,-30.07333 21.98933,-11.04362 21.98933,-11.04361 30.30013,15.35233 30.30011,15.35235 v 30.86043 30.86043 l -20.41305,10.37203 c -11.22719,5.70461 -21.33176,10.3152 -22.45462,10.24574 -1.12287,-0.0695 -15.2694,-7.02999 -31.43673,-15.46786 z m 67.77214,-33.13493 v -5.73284 h -6.53225 -6.53225 v 5.73284 5.73283 h 6.53225 6.53225 z m -0.33815,-20.24967 0.47837,-9.50059 -17.62554,-8.7332 -17.62554,-8.73319 -2.82155,3.18511 c -1.55185,1.7518 -2.83788,3.95646 -2.85785,4.89924 -0.0199,0.94278 6.02642,4.83307 13.43645,8.64507 12.40529,6.38178 13.51011,7.32474 13.94398,11.90134 0.75264,7.93927 1.48731,8.77614 7.27461,8.28667 l 5.31869,-0.44985 z m -269.93388,-49.2793 -31.02821,-16.13819 -0.44093,-29.40733 -0.44093,-29.40734 19.22116,-9.67037 c 10.57164,-5.3187 20.69092,-10.48929 22.48729,-11.49019 2.90322,-1.61764 6.62299,-0.11441 33.47781,13.52907 l 30.21167,15.3489 0.43959,30.95203 0.43959,30.95203 -16.77023,8.32136 c -9.22362,4.57676 -18.97486,9.40741 -21.66941,10.73479 l -4.89919,2.41344 z m 67.77213,-33.66203 v -5.73284 h -6.53225 -6.53225 v 5.73284 5.73283 h 6.53225 6.53225 z m -0.33365,-19.64154 -0.48287,-9.60907 -17.14717,-8.87766 c -9.43095,-4.8827 -17.70356,-8.57952 -18.38358,-8.21514 -0.68003,0.36438 -2.32603,2.51173 -3.65778,4.77188 l -2.42138,4.10938 14.68097,7.37312 14.68096,7.37311 v 6.34173 6.34173 h 6.60687 6.60687 z m 68.1058,52.82335 -29.39515,-15.34198 -0.43973,-30.11519 -0.43975,-30.11518 21.48086,-10.69362 c 11.81447,-5.88149 21.93322,-10.58087 22.4861,-10.44307 0.55289,0.13781 14.23306,6.97862 30.40039,15.20182 l 29.39515,14.95127 0.43898,30.66398 0.43899,30.66397 -20.44377,10.38763 c -11.24409,5.7132 -21.36249,10.34145 -22.48535,10.285 -1.12286,-0.0564 -15.26939,-7.00655 -31.43672,-15.44463 z m 67.77214,-33.18181 v -5.73284 h -6.53225 -6.53226 v 5.73284 5.73283 h 6.53226 6.53225 z m -0.81653,-19.97005 V 142.815 l -17.59927,-9.02381 -17.59926,-9.02381 -3.22218,4.62932 c -3.81812,5.4855 -4.1734,5.13535 14.33302,14.12654 l 11.83971,5.75224 v 6.43556 6.43556 l 6.12399,-0.44482 6.12399,-0.44481 z"
       id="path897" />
    <path
       style="display:inline;fill:#646464;stroke-width:1.52987"
       d="m 129.57065,412.42672 c -1.25498,-3.03035 -1.68123,-69.7972 -0.43862,-68.70417 1.06979,0.94104 2.68803,70.49941 1.64007,70.49681 -0.25273,-6.1e-4 -0.79338,-0.8073 -1.20145,-1.79264 z m 281.3814,-33.01265 c 0.25658,-19.06597 0.99146,-35.12712 1.63306,-35.69144 0.6416,-0.56432 0.95658,14.57339 0.69999,33.63934 -0.25658,19.06597 -0.99146,35.12712 -1.63306,35.69145 -0.64159,0.56431 -0.95658,-14.57339 -0.69999,-33.63935 z M 128.43203,167.29924 c 0.25659,-19.06597 0.99147,-35.12711 1.63306,-35.69144 0.64159,-0.56432 0.95659,14.57338 0.7,33.63935 -0.25659,19.06596 -0.99147,35.12711 -1.63306,35.69143 -0.64159,0.56433 -0.9566,-14.57338 -0.7,-33.63934 z m 283.65864,33.01265 c -1.25498,-3.03035 -1.68124,-69.7972 -0.43863,-68.70416 1.06979,0.94102 2.68804,70.4994 1.64009,70.4968 -0.25275,-6.2e-4 -0.79339,-0.80731 -1.20146,-1.79264 z"
       id="path893" />
    <path
       style="display:inline;fill:#e37d0c;fill-opacity:1;stroke-width:1.52987"
       d="m 166.34249,430.73788 -35.11087,-17.82319 -0.81653,-34.68508 -0.81653,-34.68506 -33.886074,-17.19767 -33.88607,-17.19765 v -36.85355 -36.85354 l 33.88607,-17.16285 33.886074,-17.16284 0.437,-34.50306 0.43699,-34.50305 35.63857,-18.03218 c 19.6012,-9.9177 36.32844,-18.032166 37.17163,-18.032166 0.84319,0 16.13955,7.416846 33.99193,16.481886 17.85237,9.06504 32.96512,16.4819 33.58389,16.4819 0.61877,0 15.73152,-7.41686 33.58389,-16.4819 17.85237,-9.06504 33.14874,-16.481886 33.99192,-16.481886 0.8432,0 17.57043,8.114466 37.17164,18.032166 l 35.63855,18.03218 0.43701,34.50305 0.437,34.50306 33.88607,17.16284 33.88607,17.16285 v 36.85354 36.85355 l -33.88607,17.19838 -33.88607,17.19839 -0.437,34.50244 -0.43701,34.50244 -35.63855,18.03219 c -19.60121,9.91768 -36.32844,18.03216 -37.17164,18.03216 -0.84318,0 -16.13955,-7.41685 -33.99192,-16.48189 -17.85237,-9.06505 -32.96512,-16.4819 -33.58389,-16.4819 -0.61877,0 -15.73152,7.41685 -33.58389,16.4819 -17.85238,9.06504 -33.21542,16.46971 -34.14009,16.45482 -0.92468,-0.0149 -17.48112,-8.04753 -36.7921,-17.85028 z m 66.97873,-8.04961 c 15.70553,-7.95372 29.4741,-15.12708 30.59682,-15.9408 1.5164,-1.09901 2.04134,-9.3285 2.04134,-32.002 v -30.52254 l -31.28398,-15.94185 -31.284,-15.94185 -30.74993,15.46759 -30.74993,15.4676 -0.0225,31.76404 -0.0225,31.76405 29.80341,15.14867 c 16.39188,8.33178 30.54871,15.15986 31.45961,15.17354 0.91091,0.0143 14.50616,-6.48274 30.21167,-14.43645 z m 136.3377,-0.49455 29.39515,-14.90729 0.40949,-32.006 0.40949,-32.00601 -30.77692,-15.46923 -30.77691,-15.46925 -31.28073,15.98381 -31.28073,15.98382 v 30.48222 c 0,22.64265 0.52499,30.86203 2.04133,31.95905 3.7509,2.71364 59.17501,30.38389 60.83162,30.36993 0.89818,-0.007 14.86088,-6.72204 31.02821,-14.92105 z M 196.55417,272.33061 v -31.8931 l -30.46648,-15.45705 -30.46648,-15.45704 -31.18168,15.767 -31.181674,15.76701 v 31.27271 31.27268 l 31.217674,15.74924 31.21767,15.74922 30.43049,-15.43879 30.43048,-15.43878 z m 243.73476,45.50264 28.17035,-14.26862 v -31.2536 -31.2536 l -31.18167,-15.76701 -31.18167,-15.767 -30.46649,15.45704 -30.46649,15.45705 v 31.86786 31.86785 l 30.21168,15.40428 c 25.08547,12.79054 30.76587,15.15996 33.47781,13.96433 1.79637,-0.79197 15.94278,-7.86083 31.43648,-15.70858 z m -137.58562,1.16844 29.39515,-14.90832 v -31.74502 -31.74503 l -30.61995,-15.5498 -30.61994,-15.5498 -30.61995,15.54873 -30.61994,15.54872 -0.43908,31.48955 -0.43908,31.48953 29.83422,15.16431 c 16.40883,8.34037 30.93655,15.16456 32.28383,15.16488 1.34728,3.1e-4 15.67741,-6.70816 31.84474,-14.90775 z m -68.41108,-102.46674 30.85061,-15.66582 0.43974,-30.79619 0.43975,-30.79618 -4.52241,-2.74105 c -2.48732,-1.50759 -16.56287,-8.79463 -31.279,-16.19343 l -26.75662,-13.45238 -8.35426,4.06901 c -4.59484,2.23796 -18.45883,9.1983 -30.80888,15.46743 l -22.45462,11.39841 0.0257,31.78102 0.0257,31.78103 30.59421,15.38986 c 16.82682,8.46443 30.67414,15.39757 30.77181,15.40699 0.0977,0.009 14.06038,-7.03249 31.02821,-15.6487 z m 134.90357,0.25884 30.62981,-15.40699 0.0225,-31.78103 0.0225,-31.78102 -22.45462,-11.39841 c -12.35007,-6.26913 -26.21406,-13.22947 -30.80891,-15.46743 l -8.35425,-4.06901 -26.75663,13.45238 c -14.71612,7.3988 -28.77752,14.67699 -31.24752,16.17375 l -4.49093,2.72139 v 30.57812 30.57813 l 30.61995,15.76089 c 16.84097,8.66849 30.97281,15.82509 31.40412,15.90355 0.43129,0.0785 14.56758,-6.79048 31.41397,-15.26432 z"
       id="path887" />
    <path
       style="fill:#000000;fill-opacity:0.8;stroke-width:1.46345"
       d="M 222.28067,495.43733 C 135.67729,448.57277 42.715097,397.8626 41.673293,396.91737 41.114288,396.41017 40.526836,339.716 40.367844,270.93031 L 40.078768,145.86543 67.145221,131.54866 C 140.15365,92.930914 212.26298,54.985105 241.80544,39.637893 l 32.77329,-17.025616 43.77369,23.603718 c 70.78581,38.169221 185.00609,100.454225 186.11628,101.490315 0.5638,0.52617 1.14122,57.26111 1.28315,126.07766 l 0.25808,125.12101 -76.35807,40.4364 c -111.09498,58.83177 -156.37622,82.5101 -157.65944,82.44282 -0.62363,-0.0327 -22.99391,-11.88878 -49.71175,-26.34687 z m 16.67005,-68.03397 c 16.31945,-8.07227 30.65006,-14.67686 31.8458,-14.67686 1.19575,0 16.77949,7.1816 34.63056,15.95912 26.62127,13.08989 33.06862,15.72909 35.86131,14.67971 1.87263,-0.70368 18.65881,-8.82297 37.30258,-18.04287 l 33.89779,-16.76342 1.03887,-20.2272 c 0.57138,-11.12496 0.90788,-26.64554 0.74779,-34.49016 l -0.29108,-14.26298 32.95319,-16.37968 32.95319,-16.37968 v -37.40909 -37.40908 l -32.73818,-16.20843 -32.73817,-16.20843 -0.0211,-16.00386 c -0.0118,-8.80211 -0.45434,-24.40037 -0.9839,-34.66281 l -0.96284,-18.65896 -33.87669,-16.75301 c -18.63219,-9.21415 -35.40887,-17.328742 -37.2815,-18.032419 -2.79269,-1.049395 -9.24004,1.58981 -35.86131,14.679709 -17.85107,8.77752 -33.4069,15.95913 -34.56852,15.95913 -1.16161,0 -16.71745,-7.18161 -34.56851,-15.95913 -26.62128,-13.089899 -33.06862,-15.729104 -35.86131,-14.679709 -1.87263,0.703677 -18.68277,8.834819 -37.35585,18.069199 l -33.95104,16.78978 -1.0368,22.25942 c -0.57024,12.24269 -0.80713,27.74172 -0.52643,34.4423 l 0.51037,12.18287 -33.489301,16.55738 -33.489306,16.55738 v 37.08753 37.08753 l 33.055836,16.37382 33.055841,16.37381 0.49484,34.49318 c 0.27217,18.97126 0.79844,34.68747 1.1695,34.92492 0.37106,0.23744 17.08245,8.4275 37.13641,18.20012 29.9633,14.60159 37.06903,17.5402 39.86897,16.48807 1.87396,-0.70418 16.75949,-7.88491 33.07894,-15.9572 z"
       id="path1998" />
    <path
       style="fill:#ffff00;fill-opacity:1;stroke-width:0.520451"
       d="m 315.00858,264.7975 c -2.05085,-0.31113 -2.99622,-1.98742 -3.01069,-5.33842 -0.0168,-3.89892 -0.71795,-6.64276 -2.06334,-8.07486 -0.61698,-0.65675 -6.2041,-3.81318 -12.41582,-7.0143 -6.21172,-3.20112 -11.81733,-6.21494 -12.45691,-6.69738 l -1.16288,-0.87716 2.37427,-4.05597 c 1.30585,-2.23078 2.68508,-4.17523 3.06495,-4.321 0.37988,-0.14577 8.44695,3.61447 17.92683,8.3561 l 17.23614,8.62115 v 9.88703 9.88704 l -4.03349,-0.078 c -2.21843,-0.0429 -4.675,-0.1753 -5.45906,-0.29425 z"
       id="path4374" />
  </g>
  <g
     inkscape:groupmode="layer"
     id="layer1"
     inkscape:label="Image 1" />
</svg>
